<svg width="54" height="54" viewBox="0 0 54 54" fill="none" xmlns="http://www.w3.org/2000/svg"><path d="M28.3016 34.7883H19.0498C18.8302 34.7883 18.6195 34.7011 18.4642 34.5458C18.3089 34.3905 18.2217 34.1798 18.2217 33.9602C18.2217 33.7406 18.3089 33.5299 18.4642 33.3746C18.6195 33.2193 18.8302 33.1321 19.0498 33.1321H28.3016C28.5212 33.1321 28.7319 33.2193 28.8872 33.3746C29.0425 33.5299 29.1297 33.7406 29.1297 33.9602C29.1297 34.1798 29.0425 34.3905 28.8872 34.5458C28.7319 34.7011 28.5212 34.7883 28.3016 34.7883Z" fill="#42AACD" stroke="#42AACD"/><path d="M40.8893 41.6038H30.7861C29.9076 41.6038 29.0651 41.2549 28.4438 40.6336C27.8226 40.0124 27.4736 39.1699 27.4736 38.2913V18.3501C27.4736 17.4716 27.8226 16.629 28.4438 16.0078C29.0651 15.3866 29.9076 15.0376 30.7861 15.0376H33.6084C33.828 15.0376 34.0387 15.1248 34.194 15.2801C34.3493 15.4355 34.4365 15.6461 34.4365 15.8657C34.4365 16.0854 34.3493 16.296 34.194 16.4513C34.0387 16.6066 33.828 16.6938 33.6084 16.6938H30.7861C30.3469 16.6938 29.9256 16.8683 29.615 17.179C29.3044 17.4896 29.1299 17.9108 29.1299 18.3501V38.2913C29.1299 38.7306 29.3044 39.1519 29.615 39.4625C29.9256 39.7731 30.3469 39.9476 30.7861 39.9476H40.8893C41.1089 39.9476 41.3195 40.0348 41.4748 40.1901C41.6301 40.3455 41.7174 40.5561 41.7174 40.7757C41.7174 40.9954 41.6301 41.206 41.4748 41.3613C41.3195 41.5166 41.1089 41.6038 40.8893 41.6038V41.6038ZM48.4169 25.7204C48.1973 25.7204 47.9866 25.6332 47.8313 25.4779C47.676 25.3226 47.5888 25.1119 47.5888 24.8923V18.3501C47.5888 17.9108 47.4143 17.4896 47.1037 17.179C46.7931 16.8683 46.3718 16.6938 45.9325 16.6938H36.6824C36.4628 16.6938 36.2521 16.6066 36.0968 16.4513C35.9415 16.296 35.8543 16.0854 35.8543 15.8657C35.8543 15.6461 35.9415 15.4355 36.0968 15.2801C36.2521 15.1248 36.4628 15.0376 36.6824 15.0376H45.9325C46.8111 15.0376 47.6536 15.3866 48.2748 16.0078C48.896 16.629 49.245 17.4716 49.245 18.3501V24.8923C49.245 25.1119 49.1578 25.3226 49.0025 25.4779C48.8472 25.6332 48.6365 25.7204 48.4169 25.7204Z" fill="#42AACD" stroke="#42AACD"/><path d="M48.9951 43.862H42.9995C42.7884 43.8623 42.5779 43.8395 42.3717 43.7941C42.162 43.7425 41.9808 43.611 41.8666 43.4277C41.7525 43.2443 41.7144 43.0237 41.7607 42.8127C41.8069 42.6017 41.9337 42.4172 42.1141 42.2984C42.2945 42.1796 42.5141 42.1359 42.7262 42.1768C42.816 42.196 42.9076 42.2057 42.9995 42.2058H48.9951C49.3354 42.2055 49.6618 42.0702 49.9025 41.8296C50.1431 41.5889 50.2785 41.2625 50.2787 40.9222V27.0014C50.2771 26.6622 50.1411 26.3374 49.9005 26.0984C49.6599 25.8593 49.3343 25.7254 48.9951 25.7261H42.9995C42.6603 25.7254 42.3346 25.8593 42.094 26.0984C41.8534 26.3374 41.7174 26.6622 41.7159 27.0014V40.7731C41.7159 40.9927 41.6286 41.2034 41.4733 41.3587C41.318 41.514 41.1074 41.6012 40.8877 41.6012C40.6681 41.6012 40.4575 41.514 40.3022 41.3587C40.1469 41.2034 40.0596 40.9927 40.0596 40.7731V27.0014C40.0616 26.2231 40.3722 25.4773 40.9233 24.9277C41.4745 24.3781 42.2211 24.0696 42.9995 24.0698H48.9951C49.7734 24.0696 50.52 24.3781 51.0712 24.9277C51.6223 25.4773 51.9329 26.2231 51.9349 27.0014V40.9222C51.9343 41.7017 51.6243 42.449 51.0731 43.0002C50.5219 43.5514 49.7746 43.8614 48.9951 43.862V43.862ZM37.5338 39.2328C37.3143 39.2312 37.1038 39.1452 36.9459 38.9926C36.8323 38.8754 36.7548 38.728 36.7225 38.568C36.6902 38.408 36.7045 38.2421 36.7637 38.09C36.8046 37.9871 36.8667 37.894 36.9459 37.8167C37.1044 37.669 37.313 37.5868 37.5297 37.5868C37.7464 37.5868 37.955 37.669 38.1135 37.8167C38.1953 37.8918 38.2578 37.9856 38.2957 38.09C38.3472 38.2154 38.3672 38.3516 38.3538 38.4866C38.3403 38.6216 38.294 38.7512 38.2187 38.864C38.1435 38.9769 38.0417 39.0695 37.9223 39.1338C37.8029 39.1981 37.6695 39.2321 37.5338 39.2328V39.2328ZM19.7871 32.202C19.6794 32.2036 19.5725 32.1839 19.4724 32.144C19.3212 32.0819 19.1917 31.9764 19.1004 31.8408C19.009 31.7053 18.9598 31.5457 18.959 31.3822C18.9602 31.2713 18.9827 31.1616 19.0252 31.0592C19.0654 30.9604 19.1245 30.8704 19.1991 30.7942C19.2794 30.7186 19.3718 30.657 19.4724 30.612C19.6244 30.5519 19.7905 30.5371 19.9507 30.5694C20.1109 30.6018 20.2583 30.6798 20.3751 30.7942C20.4497 30.8722 20.5112 30.9616 20.5573 31.0592C20.5972 31.1621 20.6169 31.2718 20.6152 31.3822C20.6163 31.49 20.5956 31.5969 20.5543 31.6965C20.513 31.7961 20.4521 31.8864 20.3751 31.9619C20.298 32.039 20.2063 32.0999 20.1053 32.1412C20.0043 32.1824 19.8962 32.2031 19.7871 32.202V32.202Z" fill="#42AACD" stroke="#42AACD"/><path d="M45.9958 26.7049C45.7761 26.7049 45.5655 26.6177 45.4102 26.4624C45.2549 26.3071 45.1676 26.0964 45.1676 25.8768V24.8946C45.1676 24.675 45.2549 24.4644 45.4102 24.3091C45.5655 24.1538 45.7761 24.0665 45.9958 24.0665C46.2154 24.0665 46.426 24.1538 46.5813 24.3091C46.7366 24.4644 46.8239 24.675 46.8239 24.8946V25.8768C46.8239 26.0964 46.7366 26.3071 46.5813 26.4624C46.426 26.6177 46.2154 26.7049 45.9958 26.7049ZM16.1129 34.7883H4.55225C3.89335 34.7883 3.26144 34.5265 2.79553 34.0606C2.32962 33.5947 2.06787 32.9628 2.06787 32.3039V11.9817C2.06787 11.3228 2.32962 10.6909 2.79553 10.225C3.26144 9.75906 3.89335 9.49731 4.55225 9.49731H35.0272C35.6861 9.49731 36.318 9.75906 36.784 10.225C37.2499 10.6909 37.5116 11.3228 37.5116 11.9817V15.8656C37.5116 16.0852 37.4244 16.2959 37.2691 16.4512C37.1138 16.6065 36.9031 16.6937 36.6835 16.6937C36.4639 16.6937 36.2532 16.6065 36.0979 16.4512C35.9426 16.2959 35.8554 16.0852 35.8554 15.8656V11.9817C35.8554 11.7621 35.7681 11.5514 35.6128 11.3961C35.4575 11.2408 35.2469 11.1536 35.0272 11.1536H4.55225C4.33261 11.1536 4.12198 11.2408 3.96667 11.3961C3.81137 11.5514 3.72412 11.7621 3.72412 11.9817V32.3039C3.72412 32.5235 3.81137 32.7341 3.96667 32.8894C4.12198 33.0448 4.33261 33.132 4.55225 33.132H16.1129C16.3325 33.132 16.5431 33.2192 16.6984 33.3746C16.8537 33.5299 16.941 33.7405 16.941 33.9601C16.941 34.1798 16.8537 34.3904 16.6984 34.5457C16.5431 34.701 16.3325 34.7883 16.1129 34.7883Z" fill="#42AACD" stroke="#42AACD"/><path d="M14.6877 40.9056C14.5394 40.9054 14.3938 40.8653 14.2663 40.7896C14.1388 40.7139 14.0339 40.6054 13.9627 40.4753C13.8914 40.3453 13.8564 40.1985 13.8613 40.0503C13.8662 39.9021 13.9107 39.7579 13.9904 39.6328C15.1779 37.7662 15.2839 33.9808 15.2856 33.9427C15.2989 33.7261 15.3936 33.5225 15.5507 33.3728C15.7078 33.2231 15.9157 33.1382 16.1327 33.1353C16.3522 33.1405 16.5607 33.2327 16.7123 33.3915C16.8638 33.5504 16.9461 33.763 16.941 33.9825C16.9368 34.1564 16.8234 38.2655 15.3874 40.5247C15.3122 40.6419 15.2087 40.7382 15.0864 40.8048C14.964 40.8714 14.8269 40.9061 14.6877 40.9056ZM24.891 40.9056C24.7515 40.9058 24.6142 40.8708 24.4919 40.8037C24.3695 40.7367 24.2661 40.6398 24.1912 40.5222C22.7552 38.2655 22.6418 34.1564 22.6377 33.98C22.6325 33.7605 22.7148 33.5479 22.8664 33.3891C23.0179 33.2302 23.2264 33.138 23.4459 33.1328H23.4658C23.682 33.1328 23.8897 33.2173 24.0444 33.3683C24.1992 33.5193 24.2887 33.7249 24.2939 33.9411C24.2939 33.9792 24.4016 37.7645 25.5891 39.6311C25.6687 39.7562 25.7133 39.9004 25.7182 40.0486C25.723 40.1968 25.688 40.3436 25.6168 40.4737C25.5455 40.6037 25.4407 40.7123 25.3131 40.788C25.1856 40.8637 25.0401 40.9037 24.8918 40.9039L24.891 40.9056Z" fill="#42AACD" stroke="#42AACD"/><path d="M26.2721 40.9058H13.3062C13.0865 40.9058 12.8759 40.8185 12.7206 40.6632C12.5653 40.5079 12.478 40.2973 12.478 40.0776C12.478 39.858 12.5653 39.6474 12.7206 39.4921C12.8759 39.3368 13.0865 39.2495 13.3062 39.2495H26.2721C26.4917 39.2495 26.7024 39.3368 26.8577 39.4921C27.013 39.6474 27.1002 39.858 27.1002 40.0776C27.1002 40.2973 27.013 40.5079 26.8577 40.6632C26.7024 40.8185 26.4917 40.9058 26.2721 40.9058V40.9058Z" fill="#42AACD" stroke="#42AACD"/></svg>