<svg width="54" height="54" viewBox="0 0 54 54" fill="none" xmlns="http://www.w3.org/2000/svg"><path fill-rule="evenodd" clip-rule="evenodd" d="M33.7003 28.4945C34.3418 29.1116 34.3692 30.1399 33.7615 30.7913L27.6983 37.2897C27.115 37.9149 26.1525 37.9693 25.5045 37.4137L21.9676 34.381C21.2925 33.8021 21.2074 32.7771 21.7775 32.0916C22.3476 31.4061 23.3571 31.3196 24.0322 31.8985L26.4145 33.9412L31.4384 28.5566C32.0461 27.9053 33.0588 27.8775 33.7003 28.4945Z" fill="#42AACD"/><path fill-rule="evenodd" clip-rule="evenodd" d="M22.2632 10.1785C21.3911 10.1785 20.6842 10.8604 20.6842 11.7015C20.6842 12.5427 21.3911 13.2246 22.2632 13.2246H31.7368C32.6089 13.2246 33.3158 12.5427 33.3158 11.7015C33.3158 10.8604 32.6089 10.1785 31.7368 10.1785H22.2632ZM14.3684 17.7939C14.3684 16.9527 15.0753 16.2708 15.9474 16.2708H38.0526C38.9247 16.2708 39.6316 16.9527 39.6316 17.7939C39.6316 18.635 38.9247 19.3169 38.0526 19.3169H15.9474C15.0753 19.3169 14.3684 18.635 14.3684 17.7939ZM11.1269 25.4092H42.8731C43.5008 25.4092 43.9831 25.9565 43.8943 26.5682L40.947 39.2605C40.8745 39.7608 40.4392 40.1323 39.9259 40.1323H14.0741C13.5608 40.1323 13.1255 39.7608 13.053 39.2605L10.1057 26.5682C10.017 25.9565 10.4991 25.4092 11.1269 25.4092ZM7.04224 26.999C6.68714 24.5522 8.61594 22.3631 11.1269 22.3631H42.8731C45.3841 22.3631 47.3129 24.5522 46.9578 26.999L44.0105 39.6913C43.7201 41.6922 41.9793 43.1785 39.9259 43.1785H14.0741C12.0207 43.1785 10.2799 41.6922 9.98947 39.6913L7.04224 26.999Z" fill="#42AACD"/></svg>