<svg width="54" height="54" viewBox="0 0 54 54" fill="none" xmlns="http://www.w3.org/2000/svg"><path d="M25.6398 26.4161L32.4942 33.2641L31.5854 34.1729L24.5454 27.1329C24.4861 27.0731 24.4391 27.0021 24.4073 26.9242C24.3754 26.8462 24.3593 26.7627 24.3598 26.6785V16.4385H25.6398V26.4161ZM43.7902 24.2657L40.9998 26.5953C40.9833 23.4344 40.031 20.3492 38.2629 17.7289C36.4949 15.1087 33.9903 13.0709 31.0653 11.8727C28.1403 10.6744 24.9258 10.3694 21.8277 10.9961C18.7295 11.6228 15.8863 13.1532 13.657 15.3941C11.4277 17.6351 9.91206 20.4861 9.30141 23.5875C8.69076 26.6889 9.01244 29.9017 10.2258 32.8205C11.4393 35.7392 13.49 38.2332 16.1194 39.9877C18.7487 41.7421 21.8388 42.6784 24.9998 42.6785V41.3985C22.0923 41.3984 19.2499 40.5373 16.8312 38.9238C14.4125 37.3103 12.5258 35.0166 11.4091 32.3321C10.2924 29.6476 9.99567 26.6925 10.5564 23.8395C11.1172 20.9866 12.5102 18.3636 14.5599 16.3015C16.6096 14.2393 19.2241 12.8304 22.0735 12.2523C24.923 11.6743 27.8798 11.953 30.5711 13.0534C33.2623 14.1538 35.5674 16.0266 37.1956 18.4354C38.8238 20.8443 39.7021 23.6814 39.7198 26.5889L36.9294 24.2657L36.1102 25.2513L39.9502 28.4513C40.0652 28.5471 40.2101 28.5995 40.3598 28.5995C40.5094 28.5995 40.6544 28.5471 40.7694 28.4513L44.6094 25.2513L43.7902 24.2657Z" fill="#42AACD" stroke="#42AACD" stroke-width="2"/></svg>