<svg width="54" height="54" viewBox="0 0 54 54" fill="none" xmlns="http://www.w3.org/2000/svg"><path d="M38.5701 32.4954C38.2165 32.6727 38.0496 33.0694 38.2234 33.4069C38.8457 34.6151 38.7551 37.1069 36.791 37.5947C36.4223 37.6865 36.1827 38.0094 36.231 38.3624C36.3805 39.4559 36.1473 41.5616 32.472 42.4182C31.7334 42.5904 30.9389 42.6785 30.0927 42.6785C26.9534 42.6785 23.111 41.4665 18.8403 38.8512C18.7509 38.7964 18.6492 38.7595 18.5433 38.7444L13.7952 38.0692C13.4288 38.0169 13.1446 37.7231 13.1446 37.3774L13.1446 25.1359C13.1446 24.9512 18.6298 21.9731 20.2445 20.5134C22.2882 18.665 23.7491 15.1949 25.8333 12.1751C26.5577 11.1253 27.5109 10.6785 28.3962 10.6785C30.0577 10.6785 31.4931 12.2539 30.7797 14.3749C30.1189 16.3385 29.432 18.0918 28.4881 19.6701C27.7198 20.9546 28.7182 22.5379 30.2954 22.5379L38.3524 22.5379C41.4527 22.5379 41.3654 26.5731 39.7588 27.7535C39.4832 27.9559 39.4 28.3181 39.5656 28.6066C40.1443 29.6145 40.0361 31.7605 38.5701 32.4954Z" stroke="#42AACD" stroke-width="3"/></svg>