<svg width="24" height="25" viewBox="0 0 24 25" fill="none" xmlns="http://www.w3.org/2000/svg"><g clip-path="url(#clip0_23253_9483)"><path d="M12 9.9425C11.4756 9.94337 10.961 10.085 10.51 10.3525C10.0544 10.6179 9.67539 10.9969 9.40997 11.4525C9.14243 11.9035 9.00083 12.4181 8.99997 12.9425C8.99513 13.0124 8.99513 13.0826 8.99997 13.1525L12.21 9.9425H12Z" fill="#767676"/><path d="M12 15.9425C12.5244 15.9416 13.039 15.8 13.49 15.5325C13.9456 15.2671 14.3246 14.8881 14.59 14.4325C14.8576 13.9815 14.9992 13.4669 15 12.9425C15 12.9425 15 12.8825 15 12.8525L11.91 15.9425H12Z" fill="#767676"/><path d="M19.34 9.56248L18.79 9.04248L16.28 11.5625C16.4251 12.0081 16.4993 12.4738 16.5 12.9425C16.5027 13.5342 16.3881 14.1205 16.1629 14.6677C15.9376 15.2148 15.6063 15.712 15.1879 16.1304C14.7695 16.5488 14.2724 16.8801 13.7252 17.1053C13.178 17.3305 12.5917 17.4451 12 17.4425C11.5314 17.441 11.0659 17.3668 10.62 17.2225L8.88 18.9425C11.289 19.7196 13.901 19.5713 16.2066 18.5267C18.5122 17.4821 20.3459 15.616 21.35 13.2925C21.3996 13.1789 21.4251 13.0564 21.4251 12.9325C21.4251 12.8086 21.3996 12.686 21.35 12.5725C20.8635 11.4581 20.1829 10.4389 19.34 9.56248V9.56248Z" fill="#767676"/><path d="M4.65997 16.3325C4.85997 16.5325 5.06997 16.7225 5.26997 16.9025L7.74997 14.4225C7.58527 13.9464 7.50079 13.4463 7.49997 12.9425C7.49732 12.3508 7.61191 11.7645 7.83712 11.2173C8.06232 10.6702 8.39369 10.173 8.81208 9.75463C9.23048 9.33624 9.7276 9.00488 10.2748 8.77967C10.8219 8.55446 11.4083 8.43987 12 8.44252C12.5037 8.44334 13.0039 8.52783 13.48 8.69252L15.22 6.94252C12.8005 6.13325 10.1652 6.2629 7.83684 7.30575C5.50847 8.34861 3.65711 10.2285 2.64997 12.5725C2.60041 12.6861 2.57483 12.8086 2.57483 12.9325C2.57483 13.0564 2.60041 13.179 2.64997 13.2925C3.12989 14.4195 3.811 15.4496 4.65997 16.3325V16.3325Z" fill="#767676"/><path d="M4.14998 21.8525C3.95136 21.8536 3.75689 21.7956 3.59137 21.6858C3.42585 21.576 3.29678 21.4194 3.22061 21.236C3.14445 21.0525 3.12463 20.8505 3.1637 20.6558C3.20277 20.4611 3.29895 20.2823 3.43998 20.1425L19.44 4.14248C19.5329 4.04875 19.6435 3.97436 19.7654 3.92359C19.8873 3.87282 20.018 3.84668 20.15 3.84668C20.282 3.84668 20.4127 3.87282 20.5346 3.92359C20.6564 3.97436 20.767 4.04875 20.86 4.14248C21.0462 4.32984 21.1508 4.58329 21.1508 4.84748C21.1508 5.11166 21.0462 5.36512 20.86 5.55248L4.85998 21.5525C4.76737 21.647 4.65692 21.7221 4.53505 21.7736C4.41317 21.8251 4.28229 21.8519 4.14998 21.8525Z" fill="#767676"/></g><defs><clipPath id="clip0_23253_9483"><rect width="24" height="24" fill="white" transform="translate(0 0.942505)"/></clipPath></defs></svg>