<svg width="143" height="26" viewBox="0 0 143 26" fill="none" xmlns="http://www.w3.org/2000/svg"><mask id="path-1-inside-1_17542_118597" fill="white"><path fill-rule="evenodd" clip-rule="evenodd" d="M11.6603 4.09499C12.1041 4.0992 12.5458 4.15945 12.976 4.27446L13.65 0.320349C12.8016 0.0941301 11.9286 -0.0131461 11.0537 0.0012837C8.82949 0.0012837 7.11482 0.853072 5.96631 2.02962C4.8178 3.20617 4.2112 4.87841 4.2112 7.65882V8.37102H0V12.2881H4.2112V25.6432H8.59494V12.2881H13.65V8.37102H8.59494V7.83545C8.59494 6.23158 8.82949 5.59061 9.20154 5.09207C9.74075 4.4169 10.5819 4.09499 11.6603 4.09499ZM43.3117 25.6432H39.1005V24.2559C37.8353 25.4035 36.2169 26.0235 34.5496 25.9993C33.3843 26.0026 32.2316 25.7439 31.1681 25.2405C30.1046 24.7371 29.1546 24.0004 28.3811 23.0793C27.0213 21.3896 26.28 19.2408 26.2917 17.0228C26.2917 11.9292 29.8639 8.01208 34.3124 8.01208C36.0514 7.98953 37.7438 8.60578 39.1005 9.75554V8.37103H43.3117V25.6432ZM38.9307 14.4247C38.4613 13.7597 37.851 13.22 37.1487 12.849C36.4465 12.478 35.6718 12.2859 34.8866 12.2881C32.3254 12.2881 30.6727 14.533 30.6727 17.0256C30.6727 19.732 32.5276 21.7261 34.9864 21.7261C35.7581 21.7325 36.5199 21.5415 37.2067 21.1695C37.8935 20.7974 38.485 20.2554 38.9307 19.5896V14.4247ZM46.8756 8.37102V25.6432H51.2594V14.4247C51.7316 13.7802 52.3332 13.2543 53.0208 12.8849C53.7084 12.5154 54.4649 12.3116 55.236 12.2881C56.1446 12.2533 57.0294 12.5994 57.6975 13.251C58.3041 13.892 58.6734 14.7808 58.6734 16.4901V25.6432H63.0572V16.8462C63.0572 13.892 62.4479 12.1457 61.3695 10.7925C60.6759 9.91957 59.8093 9.21833 58.831 8.73836C57.8526 8.2584 56.7864 8.01143 55.7078 8.01493C54.0229 8.00842 52.389 8.62523 51.0895 9.75838V8.37102H46.8756ZM91.3143 25.9993C93.8432 25.9993 96.4368 24.8968 98.0221 22.9027L95.5417 20.2647C94.7653 21.1535 93.2824 22.2589 91.4303 22.2589C89.1036 22.2589 87.2487 20.5838 87.0142 18.1623H98.3375C98.4032 17.7271 98.4329 17.2868 98.4265 16.8462C98.4265 12.0374 95.2236 8.01493 90.7077 8.01493C85.8549 8.01493 82.7518 12.2169 82.7518 17.0256C82.7518 22.4383 86.4264 25.9993 91.3143 25.9993ZM92.8687 12.6186C93.4647 13.1765 93.8468 13.9456 93.943 14.7808H87.2029C87.4051 13.214 88.8879 11.7525 90.7077 11.7525C91.504 11.7526 92.2726 12.0607 92.8687 12.6186ZM74.3352 25.9993C77.4005 25.9993 79.8297 24.8256 81.7492 22.1193L78.3792 19.4443C77.9515 20.1308 77.3721 20.697 76.691 21.0941C76.0099 21.4911 75.2477 21.7071 74.47 21.7233C71.8063 21.7233 69.9514 19.7291 69.9514 17.0228C69.9384 16.403 70.0433 15.7868 70.2598 15.2107C70.4763 14.6345 70.8 14.1101 71.2118 13.6686C71.6237 13.2271 72.1152 12.8774 72.6572 12.6403C73.1993 12.4031 73.7809 12.2834 74.3675 12.2881C75.1055 12.2977 75.8311 12.4894 76.4864 12.848C77.1418 13.2066 77.7087 13.7222 78.142 14.3535L81.2451 11.4677C80.4201 10.3804 79.3727 9.50493 78.1815 8.90692C76.9903 8.3089 75.6863 8.00393 74.3675 8.01493C69.3799 8.01493 65.5704 12.0403 65.5704 17.0256C65.5704 22.011 69.2774 25.9993 74.3352 25.9993ZM25.6179 12.4647C25.0989 12.3337 24.5661 12.2744 24.0326 12.2881C22.1104 12.2881 20.5952 13.7495 20.056 14.7808V25.6432H15.6722V8.37103H19.8834V10.1145C20.8621 8.83253 22.6496 8.01493 24.6365 8.01493C25.1337 8.01862 25.6297 8.06627 26.1194 8.15737L25.6179 12.4647Z"/></mask><path fill-rule="evenodd" clip-rule="evenodd" d="M11.6603 4.09499C12.1041 4.0992 12.5458 4.15945 12.976 4.27446L13.65 0.320349C12.8016 0.0941301 11.9286 -0.0131461 11.0537 0.0012837C8.82949 0.0012837 7.11482 0.853072 5.96631 2.02962C4.8178 3.20617 4.2112 4.87841 4.2112 7.65882V8.37102H0V12.2881H4.2112V25.6432H8.59494V12.2881H13.65V8.37102H8.59494V7.83545C8.59494 6.23158 8.82949 5.59061 9.20154 5.09207C9.74075 4.4169 10.5819 4.09499 11.6603 4.09499ZM43.3117 25.6432H39.1005V24.2559C37.8353 25.4035 36.2169 26.0235 34.5496 25.9993C33.3843 26.0026 32.2316 25.7439 31.1681 25.2405C30.1046 24.7371 29.1546 24.0004 28.3811 23.0793C27.0213 21.3896 26.28 19.2408 26.2917 17.0228C26.2917 11.9292 29.8639 8.01208 34.3124 8.01208C36.0514 7.98953 37.7438 8.60578 39.1005 9.75554V8.37103H43.3117V25.6432ZM38.9307 14.4247C38.4613 13.7597 37.851 13.22 37.1487 12.849C36.4465 12.478 35.6718 12.2859 34.8866 12.2881C32.3254 12.2881 30.6727 14.533 30.6727 17.0256C30.6727 19.732 32.5276 21.7261 34.9864 21.7261C35.7581 21.7325 36.5199 21.5415 37.2067 21.1695C37.8935 20.7974 38.485 20.2554 38.9307 19.5896V14.4247ZM46.8756 8.37102V25.6432H51.2594V14.4247C51.7316 13.7802 52.3332 13.2543 53.0208 12.8849C53.7084 12.5154 54.4649 12.3116 55.236 12.2881C56.1446 12.2533 57.0294 12.5994 57.6975 13.251C58.3041 13.892 58.6734 14.7808 58.6734 16.4901V25.6432H63.0572V16.8462C63.0572 13.892 62.4479 12.1457 61.3695 10.7925C60.6759 9.91957 59.8093 9.21833 58.831 8.73836C57.8526 8.2584 56.7864 8.01143 55.7078 8.01493C54.0229 8.00842 52.389 8.62523 51.0895 9.75838V8.37102H46.8756ZM91.3143 25.9993C93.8432 25.9993 96.4368 24.8968 98.0221 22.9027L95.5417 20.2647C94.7653 21.1535 93.2824 22.2589 91.4303 22.2589C89.1036 22.2589 87.2487 20.5838 87.0142 18.1623H98.3375C98.4032 17.7271 98.4329 17.2868 98.4265 16.8462C98.4265 12.0374 95.2236 8.01493 90.7077 8.01493C85.8549 8.01493 82.7518 12.2169 82.7518 17.0256C82.7518 22.4383 86.4264 25.9993 91.3143 25.9993ZM92.8687 12.6186C93.4647 13.1765 93.8468 13.9456 93.943 14.7808H87.2029C87.4051 13.214 88.8879 11.7525 90.7077 11.7525C91.504 11.7526 92.2726 12.0607 92.8687 12.6186ZM74.3352 25.9993C77.4005 25.9993 79.8297 24.8256 81.7492 22.1193L78.3792 19.4443C77.9515 20.1308 77.3721 20.697 76.691 21.0941C76.0099 21.4911 75.2477 21.7071 74.47 21.7233C71.8063 21.7233 69.9514 19.7291 69.9514 17.0228C69.9384 16.403 70.0433 15.7868 70.2598 15.2107C70.4763 14.6345 70.8 14.1101 71.2118 13.6686C71.6237 13.2271 72.1152 12.8774 72.6572 12.6403C73.1993 12.4031 73.7809 12.2834 74.3675 12.2881C75.1055 12.2977 75.8311 12.4894 76.4864 12.848C77.1418 13.2066 77.7087 13.7222 78.142 14.3535L81.2451 11.4677C80.4201 10.3804 79.3727 9.50493 78.1815 8.90692C76.9903 8.3089 75.6863 8.00393 74.3675 8.01493C69.3799 8.01493 65.5704 12.0403 65.5704 17.0256C65.5704 22.011 69.2774 25.9993 74.3352 25.9993ZM25.6179 12.4647C25.0989 12.3337 24.5661 12.2744 24.0326 12.2881C22.1104 12.2881 20.5952 13.7495 20.056 14.7808V25.6432H15.6722V8.37103H19.8834V10.1145C20.8621 8.83253 22.6496 8.01493 24.6365 8.01493C25.1337 8.01862 25.6297 8.06627 26.1194 8.15737L25.6179 12.4647Z" fill="white"/><path d="M12.976 4.27446L12.7177 5.24054L13.7774 5.52385L13.9618 4.4425L12.976 4.27446ZM11.6603 4.09499L11.6698 3.09499H11.6603V4.09499ZM13.65 0.320349L14.6358 0.488382L14.7891 -0.410877L13.9076 -0.645895L13.65 0.320349ZM11.0537 0.0012837V1.00128H11.062L11.0702 1.00115L11.0537 0.0012837ZM5.96631 2.02962L5.25073 1.33109L5.25073 1.33109L5.96631 2.02962ZM4.2112 8.37102V9.37102H5.2112V8.37102H4.2112ZM0 8.37102V7.37102H-1V8.37102H0ZM0 12.2881H-1V13.2881H0V12.2881ZM4.2112 12.2881H5.2112V11.2881H4.2112V12.2881ZM4.2112 25.6432H3.2112V26.6432H4.2112V25.6432ZM8.59494 25.6432V26.6432H9.59494V25.6432H8.59494ZM8.59494 12.2881V11.2881H7.59494V12.2881H8.59494ZM13.65 12.2881V13.2881H14.65V12.2881H13.65ZM13.65 8.37102H14.65V7.37102H13.65V8.37102ZM8.59494 8.37102H7.59494V9.37102H8.59494V8.37102ZM9.20154 5.09207L8.42015 4.46803L8.40992 4.48084L8.40012 4.49397L9.20154 5.09207ZM39.1005 25.6432H38.1005V26.6432H39.1005V25.6432ZM43.3117 25.6432V26.6432H44.3117V25.6432H43.3117ZM39.1005 24.2559H40.1005V21.9987L38.4287 23.5152L39.1005 24.2559ZM34.5496 25.9993L34.5641 24.9994L34.5555 24.9993L34.5468 24.9993L34.5496 25.9993ZM31.1681 25.2405L30.7402 26.1444H30.7402L31.1681 25.2405ZM28.3811 23.0793L27.602 23.7063L27.6086 23.7144L27.6153 23.7224L28.3811 23.0793ZM26.2917 17.0228L27.2917 17.0281V17.0228H26.2917ZM34.3124 8.01208V9.01217L34.3253 9.012L34.3124 8.01208ZM39.1005 9.75554L38.454 10.5184L40.1005 11.9138V9.75554H39.1005ZM39.1005 8.37103V7.37103H38.1005V8.37103H39.1005ZM43.3117 8.37103H44.3117V7.37103H43.3117V8.37103ZM37.1487 12.849L37.6159 11.9648L37.6159 11.9648L37.1487 12.849ZM38.9307 14.4247H39.9307V14.1073L39.7477 13.848L38.9307 14.4247ZM34.8866 12.2881V13.2881L34.8895 13.2881L34.8866 12.2881ZM34.9864 21.7261L34.9946 20.7261H34.9864V21.7261ZM37.2067 21.1695L37.683 22.0488V22.0487L37.2067 21.1695ZM38.9307 19.5896L39.7617 20.1458L39.9307 19.8933V19.5896H38.9307ZM46.8756 25.6432H45.8756V26.6432H46.8756V25.6432ZM46.8756 8.37102V7.37102H45.8756V8.37102H46.8756ZM51.2594 25.6432V26.6432H52.2594V25.6432H51.2594ZM51.2594 14.4247L50.4527 13.8337L50.2594 14.0976V14.4247H51.2594ZM53.0208 12.8849L53.4941 13.7658V13.7658L53.0208 12.8849ZM55.236 12.2881L55.2665 13.2877L55.2742 13.2874L55.236 12.2881ZM57.6975 13.251L58.4238 12.5636L58.41 12.5491L58.3956 12.5351L57.6975 13.251ZM58.6734 25.6432H57.6734V26.6432H58.6734V25.6432ZM63.0572 25.6432V26.6432H64.0572V25.6432H63.0572ZM61.3695 10.7925L60.5865 11.4146L60.5874 11.4157L61.3695 10.7925ZM58.831 8.73836L58.3905 9.63614V9.63614L58.831 8.73836ZM55.7078 8.01493L55.7039 9.01494L55.7111 9.01492L55.7078 8.01493ZM51.0895 9.75838H50.0895V11.9571L51.7467 10.5121L51.0895 9.75838ZM51.0895 8.37102H52.0895V7.37102H51.0895V8.37102ZM98.0221 22.9027L98.8049 23.525L99.3431 22.8479L98.7506 22.2177L98.0221 22.9027ZM95.5417 20.2647L96.2703 19.5797L95.5145 18.7759L94.7886 19.6068L95.5417 20.2647ZM87.0142 18.1623V17.1623H85.9126L86.0188 18.2587L87.0142 18.1623ZM98.3375 18.1623V19.1623H99.1979L99.3263 18.3116L98.3375 18.1623ZM98.4265 16.8462H97.4265V16.8535L97.4266 16.8609L98.4265 16.8462ZM93.943 14.7808V15.7808H95.0647L94.9364 14.6664L93.943 14.7808ZM92.8687 12.6186L92.1853 13.3487V13.3487L92.8687 12.6186ZM87.2029 14.7808L86.2111 14.6528L86.0656 15.7808H87.2029V14.7808ZM90.7077 11.7525L90.7079 10.7525H90.7077V11.7525ZM81.7492 22.1193L82.5649 22.6978L83.113 21.925L82.3709 21.336L81.7492 22.1193ZM78.3792 19.4443L79.0009 18.661L78.1231 17.9642L77.5305 18.9155L78.3792 19.4443ZM76.691 21.0941L77.1947 21.958V21.958L76.691 21.0941ZM74.47 21.7233V22.7233H74.4804L74.4908 22.7231L74.47 21.7233ZM69.9514 17.0228H70.9514V17.0123L70.9512 17.0018L69.9514 17.0228ZM72.6572 12.6403L72.2564 11.7241L72.2564 11.7241L72.6572 12.6403ZM74.3675 12.2881L74.3805 11.2882L74.3756 11.2881L74.3675 12.2881ZM78.142 14.3535L77.3174 14.9193L77.9737 15.8756L78.823 15.0858L78.142 14.3535ZM81.2451 11.4677L81.9261 12.1999L82.5886 11.5839L82.0417 10.8632L81.2451 11.4677ZM74.3675 8.01493V9.01496L74.3758 9.01489L74.3675 8.01493ZM24.0326 12.2881V13.2881H24.0455L24.0584 13.2878L24.0326 12.2881ZM25.6179 12.4647L25.3731 13.4343L26.4793 13.7135L26.6112 12.5804L25.6179 12.4647ZM20.056 14.7808L19.1698 14.3175L19.056 14.5351V14.7808H20.056ZM20.056 25.6432V26.6432H21.056V25.6432H20.056ZM15.6722 25.6432H14.6722V26.6432H15.6722V25.6432ZM15.6722 8.37103V7.37103H14.6722V8.37103H15.6722ZM19.8834 8.37103H20.8834V7.37103H19.8834V8.37103ZM19.8834 10.1145H18.8834V13.0724L20.6783 10.7213L19.8834 10.1145ZM24.6365 8.01493L24.644 7.01493H24.6365V8.01493ZM26.1194 8.15737L27.1127 8.273L27.2207 7.3451L26.3023 7.17424L26.1194 8.15737ZM13.2343 3.30839C12.7231 3.17175 12.1979 3.10004 11.6698 3.09504L11.6509 5.09495C12.0103 5.09835 12.3684 5.14714 12.7177 5.24054L13.2343 3.30839ZM12.6642 0.152315L11.9902 4.10643L13.9618 4.4425L14.6358 0.488382L12.6642 0.152315ZM11.0702 1.00115C11.8523 0.988249 12.633 1.08412 13.3924 1.28659L13.9076 -0.645895C12.9701 -0.895861 12.005 -1.01454 11.0372 -0.99858L11.0702 1.00115ZM6.68189 2.72815C7.64404 1.74251 9.10149 1.00128 11.0537 1.00128V-0.998716C8.5575 -0.998716 6.58559 -0.0363639 5.25073 1.33109L6.68189 2.72815ZM5.2112 7.65882C5.2112 5.02362 5.78318 3.64881 6.68189 2.72815L5.25073 1.33109C3.85243 2.76354 3.2112 4.73319 3.2112 7.65882H5.2112ZM5.2112 8.37102V7.65882H3.2112V8.37102H5.2112ZM0 9.37102H4.2112V7.37102H0V9.37102ZM1 12.2881V8.37102H-1V12.2881H1ZM4.2112 11.2881H0V13.2881H4.2112V11.2881ZM5.2112 25.6432V12.2881H3.2112V25.6432H5.2112ZM8.59494 24.6432H4.2112V26.6432H8.59494V24.6432ZM7.59494 12.2881V25.6432H9.59494V12.2881H7.59494ZM13.65 11.2881H8.59494V13.2881H13.65V11.2881ZM12.65 8.37102V12.2881H14.65V8.37102H12.65ZM8.59494 9.37102H13.65V7.37102H8.59494V9.37102ZM7.59494 7.83545V8.37102H9.59494V7.83545H7.59494ZM8.40012 4.49397C7.84204 5.24179 7.59494 6.13655 7.59494 7.83545H9.59494C9.59494 6.32661 9.81695 5.93943 10.003 5.69016L8.40012 4.49397ZM11.6603 3.09499C10.3858 3.09499 9.20758 3.48206 8.42015 4.46803L9.98293 5.71611C10.2739 5.35175 10.778 5.09499 11.6603 5.09499V3.09499ZM39.1005 26.6432H43.3117V24.6432H39.1005V26.6432ZM38.1005 24.2559V25.6432H40.1005V24.2559H38.1005ZM34.5351 26.9992C36.4626 27.0272 38.3245 26.3099 39.7724 24.9965L38.4287 23.5152C37.346 24.4972 35.9713 25.0198 34.5641 24.9994L34.5351 26.9992ZM30.7402 26.1444C31.937 26.7109 33.2367 27.003 34.5524 26.9993L34.5468 24.9993C33.5319 25.0022 32.5262 24.777 31.5959 24.3367L30.7402 26.1444ZM27.6153 23.7224C28.4792 24.7512 29.5437 25.5779 30.7402 26.1444L31.5959 24.3367C30.6655 23.8962 29.8299 23.2496 29.1469 22.4362L27.6153 23.7224ZM25.2917 17.0175C25.2789 19.4597 26.0947 21.8331 27.602 23.7063L29.1602 22.4524C27.948 20.9461 27.2812 19.0218 27.2917 17.0281L25.2917 17.0175ZM34.3124 7.01208C29.2119 7.01208 25.2917 11.4822 25.2917 17.0228H27.2917C27.2917 12.3762 30.5159 9.01208 34.3124 9.01208V7.01208ZM39.747 8.99265C38.2109 7.69078 36.2855 6.98641 34.2994 7.01217L34.3253 9.012C35.8172 8.99265 37.2768 9.52078 38.454 10.5184L39.747 8.99265ZM38.1005 8.37103V9.75554H40.1005V8.37103H38.1005ZM43.3117 7.37103H39.1005V9.37103H43.3117V7.37103ZM44.3117 25.6432V8.37103H42.3117V25.6432H44.3117ZM36.6816 13.7332C37.2411 14.0288 37.7327 14.4616 38.1137 15.0014L39.7477 13.848C39.1898 13.0577 38.4609 12.4113 37.6159 11.9648L36.6816 13.7332ZM34.8895 13.2881C35.5088 13.2863 36.1224 13.4377 36.6816 13.7332L37.6159 11.9648C36.7706 11.5182 35.8347 11.2854 34.8838 11.2881L34.8895 13.2881ZM31.6727 17.0256C31.6727 14.915 33.0337 13.2881 34.8866 13.2881V11.2881C31.617 11.2881 29.6727 14.1509 29.6727 17.0256H31.6727ZM34.9864 20.7261C33.1554 20.7261 31.6727 19.2583 31.6727 17.0256H29.6727C29.6727 20.2056 31.8998 22.7261 34.9864 22.7261V20.7261ZM36.7304 20.2902C36.1905 20.5827 35.5951 20.7311 34.9946 20.7262L34.9781 22.7261C35.9212 22.7339 36.8494 22.5003 37.683 22.0488L36.7304 20.2902ZM38.0996 19.0333C37.7418 19.5679 37.2708 19.9975 36.7304 20.2902L37.683 22.0487C38.5163 21.5974 39.2282 20.9429 39.7617 20.1458L38.0996 19.0333ZM37.9307 14.4247V19.5896H39.9307V14.4247H37.9307ZM47.8756 25.6432V8.37102H45.8756V25.6432H47.8756ZM51.2594 24.6432H46.8756V26.6432H51.2594V24.6432ZM50.2594 14.4247V25.6432H52.2594V14.4247H50.2594ZM52.5475 12.0039C51.7254 12.4457 51.0109 13.0718 50.4527 13.8337L52.066 15.0157C52.4523 14.4886 52.941 14.0629 53.4941 13.7658L52.5475 12.0039ZM55.2055 11.2886C54.2778 11.3168 53.3698 11.5621 52.5475 12.0039L53.4941 13.7658C54.0469 13.4687 54.6521 13.3064 55.2665 13.2876L55.2055 11.2886ZM58.3956 12.5351C57.5371 11.6978 56.3883 11.2433 55.1978 11.2888L55.2742 13.2874C55.9008 13.2634 56.5216 13.5011 56.9993 13.9669L58.3956 12.5351ZM59.6734 16.4901C59.6734 14.6241 59.2641 13.4515 58.4238 12.5636L56.9712 13.9384C57.3441 14.3324 57.6734 14.9375 57.6734 16.4901H59.6734ZM59.6734 25.6432V16.4901H57.6734V25.6432H59.6734ZM63.0572 24.6432H58.6734V26.6432H63.0572V24.6432ZM62.0572 16.8462V25.6432H64.0572V16.8462H62.0572ZM60.5874 11.4157C61.4838 12.5405 62.0572 14.0427 62.0572 16.8462H64.0572C64.0572 13.7413 63.4119 11.7508 62.1515 10.1693L60.5874 11.4157ZM58.3905 9.63614C59.2325 10.0492 59.9831 10.6551 60.5865 11.4146L62.1524 10.1704C61.3688 9.18409 60.3861 8.38744 59.2714 7.84058L58.3905 9.63614ZM55.7111 9.01492C56.6343 9.01193 57.5488 9.22319 58.3905 9.63614L59.2714 7.84058C58.1565 7.2936 56.9386 7.01093 55.7046 7.01493L55.7111 9.01492ZM51.7467 10.5121C52.8678 9.53452 54.2682 9.00937 55.7039 9.01492L55.7117 7.01493C53.7777 7.00746 51.9103 7.71594 50.4323 9.00468L51.7467 10.5121ZM50.0895 8.37102V9.75838H52.0895V8.37102H50.0895ZM46.8756 9.37102H51.0895V7.37102H46.8756V9.37102ZM97.2393 22.2804C95.8666 24.0071 93.5771 24.9993 91.3143 24.9993V26.9993C94.1093 26.9993 97.007 25.7865 98.8049 23.525L97.2393 22.2804ZM94.8132 20.9497L97.2935 23.5877L98.7506 22.2177L96.2703 19.5797L94.8132 20.9497ZM91.4303 23.2589C93.6773 23.2589 95.4118 21.9335 96.2948 20.9226L94.7886 19.6068C94.1188 20.3736 92.8876 21.2589 91.4303 21.2589V23.2589ZM86.0188 18.2587C86.3018 21.1804 88.5764 23.2589 91.4303 23.2589V21.2589C89.6308 21.2589 88.1956 19.9871 88.0095 18.0659L86.0188 18.2587ZM98.3375 17.1623H87.0142V19.1623H98.3375V17.1623ZM97.4266 16.8609C97.4323 17.2467 97.4062 17.6322 97.3487 18.0131L99.3263 18.3116C99.4002 17.8221 99.4336 17.3269 99.4264 16.8315L97.4266 16.8609ZM90.7077 9.01493C94.5248 9.01493 97.4265 12.4308 97.4265 16.8462H99.4265C99.4265 11.6441 95.9224 7.01493 90.7077 7.01493V9.01493ZM83.7518 17.0256C83.7518 12.5951 86.5664 9.01493 90.7077 9.01493V7.01493C85.1433 7.01493 81.7518 11.8386 81.7518 17.0256H83.7518ZM91.3143 24.9993C89.12 24.9993 87.2437 24.204 85.9156 22.8437C84.5877 21.4835 83.7518 19.5 83.7518 17.0256H81.7518C81.7518 19.9639 82.7531 22.4673 84.4845 24.2408C86.2158 26.0141 88.6208 26.9993 91.3143 26.9993V24.9993ZM94.9364 14.6664C94.814 13.6034 94.3267 12.6136 93.552 11.8885L92.1853 13.3487C92.6027 13.7394 92.8796 14.2878 92.9495 14.8952L94.9364 14.6664ZM87.2029 15.7808H93.943V13.7808H87.2029V15.7808ZM90.7077 10.7525C88.3645 10.7525 86.475 12.608 86.2111 14.6528L88.1947 14.9088C88.3352 13.8199 89.4113 12.7525 90.7077 12.7525V10.7525ZM93.552 11.8885C92.7759 11.1621 91.7649 10.7527 90.7079 10.7525L90.7076 12.7525C91.2431 12.7526 91.7693 12.9593 92.1853 13.3487L93.552 11.8885ZM80.9336 21.5407C79.2038 23.9795 77.0803 24.9993 74.3352 24.9993V26.9993C77.7207 26.9993 80.4556 25.6717 82.5649 22.6978L80.9336 21.5407ZM77.7575 20.2275L81.1275 22.9025L82.3709 21.336L79.0009 18.661L77.7575 20.2275ZM77.1947 21.958C78.0201 21.4768 78.7165 20.794 79.228 19.9731L77.5305 18.9155C77.1865 19.4676 76.7241 19.9172 76.1874 20.2302L77.1947 21.958ZM74.4908 22.7231C75.4408 22.7033 76.3689 22.4394 77.1947 21.958L76.1874 20.2302C75.651 20.5428 75.0546 20.7109 74.4491 20.7235L74.4908 22.7231ZM68.9514 17.0228C68.9514 20.2345 71.2082 22.7233 74.47 22.7233V20.7233C72.4043 20.7233 70.9514 19.2238 70.9514 17.0228H68.9514ZM69.3237 14.8589C69.0621 15.555 68.936 16.2978 68.9516 17.0438L70.9512 17.0018C70.9408 16.5083 71.0244 16.0186 71.1959 15.5624L69.3237 14.8589ZM70.4806 12.9865C69.9778 13.5256 69.5853 14.1627 69.3237 14.8589L71.1959 15.5624C71.3673 15.1063 71.6223 14.6947 71.9431 14.3507L70.4806 12.9865ZM72.2564 11.7241C71.5868 12.017 70.9835 12.4473 70.4806 12.9865L71.9431 14.3507C72.2639 14.0068 72.6435 13.7378 73.058 13.5564L72.2564 11.7241ZM74.3756 11.2881C73.647 11.2823 72.9262 11.4311 72.2564 11.7241L73.058 13.5564C73.4723 13.3752 73.9147 13.2845 74.3595 13.2881L74.3756 11.2881ZM76.9665 11.9708C76.1696 11.5348 75.2839 11.2999 74.3805 11.2882L74.3545 13.288C74.927 13.2955 75.4925 13.4441 76.0064 13.7253L76.9665 11.9708ZM78.9665 13.7876C78.4467 13.0303 77.763 12.4066 76.9665 11.9708L76.0064 13.7253C76.5206 14.0066 76.9707 14.4141 77.3174 14.9193L78.9665 13.7876ZM80.5641 10.7354L77.461 13.6212L78.823 15.0858L81.9261 12.1999L80.5641 10.7354ZM77.7328 9.80062C78.7841 10.3284 79.7136 11.1036 80.4485 12.0721L82.0417 10.8632C81.1266 9.65725 79.9612 8.68147 78.6301 8.01322L77.7328 9.80062ZM74.3758 9.01489C75.5343 9.00523 76.6818 9.27298 77.7328 9.80062L78.6301 8.01322C77.2987 7.34483 75.8383 7.00263 74.3592 7.01496L74.3758 9.01489ZM66.5704 17.0256C66.5704 12.5607 69.9634 9.01493 74.3675 9.01493V7.01493C68.7963 7.01493 64.5704 11.5198 64.5704 17.0256H66.5704ZM74.3352 24.9993C69.8657 24.9993 66.5704 21.4954 66.5704 17.0256H64.5704C64.5704 22.5266 68.6891 26.9993 74.3352 26.9993V24.9993ZM24.0584 13.2878C24.5004 13.2764 24.9423 13.3255 25.3731 13.4343L25.8627 11.4952C25.2556 11.3419 24.6317 11.2723 24.0068 11.2884L24.0584 13.2878ZM20.9422 15.2441C21.1354 14.8747 21.5421 14.3681 22.11 13.9593C22.6707 13.5555 23.33 13.2881 24.0326 13.2881V11.2881C22.813 11.2881 21.7536 11.7514 20.9414 12.3362C20.1362 12.9159 19.5158 13.6557 19.1698 14.3175L20.9422 15.2441ZM21.056 25.6432V14.7808H19.056V25.6432H21.056ZM15.6722 26.6432H20.056V24.6432H15.6722V26.6432ZM14.6722 8.37103V25.6432H16.6722V8.37103H14.6722ZM19.8834 7.37103H15.6722V9.37103H19.8834V7.37103ZM20.8834 10.1145V8.37103H18.8834V10.1145H20.8834ZM24.6365 7.01493C22.3995 7.01493 20.2909 7.93272 19.0886 9.50768L20.6783 10.7213C21.4333 9.73234 22.8997 9.01493 24.6365 9.01493V7.01493ZM26.3023 7.17424C25.7548 7.07239 25.2001 7.01909 24.644 7.01495L24.6291 9.0149C25.0673 9.01816 25.5046 9.06015 25.9365 9.1405L26.3023 7.17424ZM26.6112 12.5804L27.1127 8.273L25.1261 8.04173L24.6246 12.3491L26.6112 12.5804Z" fill="white" mask="url(#path-1-inside-1_17542_118597)"/><path d="M143 8.37104H138.449L133.966 18.9116L129.482 8.37104H121.254V3.56229H116.862V8.37104H112.651V12.2881H116.862V18.3418C116.862 20.8003 117.234 22.3301 118.075 23.5066C119.189 25.0735 121.111 25.9993 123.737 25.9993C124.658 26.004 125.576 25.8843 126.468 25.6432L125.794 21.7262C125.204 21.8388 124.606 21.8988 124.007 21.9056C122.928 21.9056 122.219 21.5837 121.782 21.051C121.41 20.5866 121.243 19.9457 121.243 18.8774V12.2881H126.635L132.448 25.6432H135.481L143 8.37104Z" fill="url(#paint0_radial_17542_118597)"/><path d="M107.032 21.7261C109.498 21.7261 111.497 19.614 111.497 17.0085C111.497 14.4031 109.498 12.291 107.032 12.291C104.567 12.291 102.568 14.4031 102.568 17.0085C102.568 19.614 104.567 21.7261 107.032 21.7261Z" fill="url(#paint1_radial_17542_118597)"/><path d="M129.482 8.37104H121.254V3.56229H116.862V8.37104H112.651V12.2881H116.862V18.3418C116.862 20.8003 117.234 22.3301 118.075 23.5066C119.189 25.0735 121.111 25.9993 123.737 25.9993C124.658 26.004 125.576 25.8843 126.468 25.6432L125.794 21.7262C125.204 21.8388 124.606 21.8988 124.007 21.9056C122.928 21.9056 122.219 21.5837 121.782 21.051C121.41 20.5866 121.243 19.9457 121.243 18.8774V12.2881H126.635L132.448 25.6432H132.761C133.417 23.4581 133.82 21.1966 133.96 18.9087L129.482 8.37104Z" fill="url(#paint2_radial_17542_118597)"/><path d="M116.862 8.37103H112.651V12.2881H116.862V18.3418C116.862 20.8003 117.234 22.3301 118.075 23.5066L118.172 23.632C119.443 21.2477 119.999 18.5115 119.765 15.786C119.531 13.0606 118.519 10.4747 116.862 8.37103Z" fill="url(#paint3_radial_17542_118597)"/><defs><radialGradient id="paint0_radial_17542_118597" cx="0" cy="0" r="1" gradientUnits="userSpaceOnUse" gradientTransform="translate(107.03 17.0057) rotate(180) scale(37.5853 39.7149)"><stop stop-color="#64C8D7"/><stop offset="0.28" stop-color="#60C4D6"/><stop offset="0.57" stop-color="#53B9D2"/><stop offset="0.86" stop-color="#3FA7CC"/><stop offset="1" stop-color="#329BC8"/></radialGradient><radialGradient id="paint1_radial_17542_118597" cx="0" cy="0" r="1" gradientUnits="userSpaceOnUse" gradientTransform="translate(107.032 17.0085) scale(12.7846 13.5089)"><stop stop-color="#FF503C"/><stop offset="0.46" stop-color="#FF5447"/><stop offset="1" stop-color="#FF5A5A"/></radialGradient><radialGradient id="paint2_radial_17542_118597" cx="0" cy="0" r="1" gradientUnits="userSpaceOnUse" gradientTransform="translate(107.03 17.0057) rotate(180) scale(26.9926 28.5221)"><stop offset="0.6" stop-color="#FFAA46"/><stop offset="0.75" stop-color="#FDAB48"/><stop offset="0.81" stop-color="#F6B04F"/><stop offset="0.86" stop-color="#E9B85B"/><stop offset="0.9" stop-color="#D8C36C"/><stop offset="0.93" stop-color="#C1D182"/><stop offset="0.96" stop-color="#A4E39D"/><stop offset="0.99" stop-color="#83F8BD"/><stop offset="1" stop-color="#78FFC8"/></radialGradient><radialGradient id="paint3_radial_17542_118597" cx="0" cy="0" r="1" gradientUnits="userSpaceOnUse" gradientTransform="translate(3432.42 1930.49) scale(339.824 723.674)"><stop stop-color="#FF503C"/><stop offset="0.46" stop-color="#FF5447"/><stop offset="1" stop-color="#FF5A5A"/></radialGradient></defs></svg>